<svg width="708" height="283" viewBox="0 0 708 283" fill="none" xmlns="http://www.w3.org/2000/svg">
<path d="M112.575 197.328C110.394 197.174 105.259 196.573 103.816 196.298C103.353 196.195 102.339 196.006 101.584 195.851C100.828 195.697 99.8663 195.508 99.437 195.422C99.0076 195.336 98.3894 195.199 98.0631 195.113C95.3496 194.392 94.5253 194.134 93.2029 193.619C92.3613 193.292 91.6057 193.035 91.5198 193.035C91.4339 193.035 90.1631 192.571 88.7205 192.022C85.32 190.699 79.6183 187.917 77.1452 186.354C76.0805 185.684 75.1702 185.135 75.1187 185.135C74.9642 185.135 72.4224 183.383 70.1555 181.7C62.7707 176.222 55.3859 168.322 50.6631 160.817C48.6881 157.691 47.8809 156.317 47.297 155.132C46.9879 154.479 46.3009 153.071 45.7685 151.989C44.6694 149.757 43.6389 147.266 42.9348 145.12C42.66 144.312 42.1448 142.767 41.767 141.685C41.3892 140.603 40.9598 139.195 40.8052 138.559C40.1698 135.863 40.0152 135.176 39.7748 133.957C39.6374 133.252 39.4485 132.136 39.3455 131.466C39.2424 130.814 39.0707 129.732 38.9676 129.062C38.8646 128.409 38.7444 127.516 38.71 127.087C38.6757 126.658 38.5555 125.679 38.4696 124.889C38.1776 122.639 38.2292 113.022 38.5555 109.999C38.8989 106.702 39.2596 104.366 39.9466 100.897C40.3931 98.6126 41.2689 95.1263 41.5781 94.3535C41.6811 94.0787 41.8357 93.7009 41.9216 93.5119C41.9902 93.323 42.3852 92.2067 42.7631 91.0217C44.137 86.9 46.4211 81.9711 48.9457 77.7119C50.5429 74.9813 51.35 73.7619 52.8957 71.6152C54.115 69.9322 54.802 69.0563 57.2407 66.1196C59.6966 63.1656 61.225 61.8432 61.6716 62.2898C61.7574 62.3756 61.3968 63.2515 60.83 64.3335C58.6489 68.4896 56.8457 72.3365 55.8668 74.9641C53.1876 82.2115 52.2946 85.6635 51.35 92.3098C50.6802 97.1013 50.8348 105.001 51.6935 109.827C51.7794 110.308 51.9339 111.235 52.0542 111.888C52.4492 114.224 53.2735 117.195 54.1666 119.616C54.3039 119.994 54.6646 120.956 54.9566 121.763C55.2657 122.57 55.5748 123.463 55.6607 123.755C56.1072 125.301 59.6794 131.861 61.8605 135.159C65.1579 140.139 67.9229 143.574 71.9759 147.696C76.3381 152.109 82.95 156.935 87.587 159.082C88.2911 159.408 89.6479 160.044 90.5753 160.473C92.8079 161.521 96.1568 162.688 99.3511 163.53C104.589 164.904 105.517 165.058 112.919 165.728C115.546 165.969 120.097 165.934 123.652 165.642C127.259 165.35 128.358 165.179 130.608 164.595C131.552 164.354 132.514 164.114 132.754 164.062C132.995 164.011 133.27 163.908 133.355 163.839C133.459 163.77 133.957 163.582 134.472 163.41C136.464 162.757 139.967 161.16 141.891 160.027C147.661 156.626 152.333 152.418 156.901 146.493C158.927 143.866 159.305 143.076 159.013 142.2C158.635 141.118 160.37 141.204 134.06 141.084C117.504 141.032 109.827 140.929 109.209 140.809C108.625 140.689 108.11 140.431 107.698 140.053L107.079 139.487L107.097 137.958C107.097 136.567 107.182 135.983 107.715 133.785C108.007 132.514 108.556 130.642 108.797 130.092C110.257 126.623 111.064 125.009 112.111 123.395C115.254 118.603 119.427 114.893 124.185 112.695C128.392 110.737 131.964 109.741 135.966 109.398C138.765 109.157 193 109.157 194.666 109.398C196.916 109.724 197.071 110.033 197.431 114.344C197.826 118.929 197.586 125.868 196.899 130.522C196.452 133.493 195.869 136.309 195.233 138.593C194.752 140.259 192.743 146.476 192.52 146.923C192.434 147.112 192.21 147.661 192.022 148.125C191.369 149.86 188.364 155.836 187.007 158.12C180.618 168.888 171.379 178.437 160.92 185.118C160.027 185.684 159.099 186.268 158.859 186.388C158.618 186.526 157.897 186.938 157.227 187.316C155.287 188.432 149.43 191.249 148.056 191.747C147.352 191.987 146.03 192.417 145.137 192.691C144.227 192.966 142.853 193.43 142.08 193.705C140.723 194.203 138.559 194.804 136.533 195.25C136.017 195.37 135.279 195.525 134.901 195.611C133.115 196.006 130.47 196.418 126.194 196.985C123.257 197.363 115.855 197.552 112.575 197.328Z" fill="white"/>
<path d="M74.5348 141.616C73.7964 141.118 71.3061 138.851 70.8596 138.267C70.6707 138.01 70.0696 137.323 69.5372 136.704C67.0642 133.888 63.0627 127.018 61.3281 122.673C60.5896 120.801 59.5248 117.693 59.3359 116.834C59.2844 116.525 59.147 116.233 59.0611 116.182C58.9753 116.113 58.9066 115.924 58.9066 115.718C58.9066 115.529 58.7177 114.739 58.4944 113.966C57.7903 111.562 57.1892 107.835 56.8457 103.645C56.279 96.7922 57.3781 87.2778 59.3874 81.4902C61.6029 75.1187 61.5514 75.2733 63.1829 71.9587C64.8487 68.6098 67.442 64.3678 69.0564 62.3413C71.9072 58.8035 72.9892 57.5841 75.4279 55.197C79.9961 50.7317 84.925 47.2111 90.0772 44.738C94.0272 42.8489 94.0959 42.8146 95.3153 42.368C100.897 40.2728 106.186 39.0535 112.489 38.4352C115.134 38.1604 123.927 38.1604 126.4 38.418C129.457 38.7443 132.17 39.1222 132.875 39.3283C133.235 39.4313 134.111 39.6202 134.815 39.7748C136.086 40.0324 137.134 40.2728 139.418 40.8052C141.049 41.183 144.759 42.4196 144.862 42.6085C144.931 42.6943 145.102 42.763 145.274 42.763C145.583 42.763 148.503 43.8965 148.812 44.137C148.915 44.2056 149.293 44.3602 149.671 44.4804C150.049 44.6006 150.924 45.0128 151.629 45.3735C152.333 45.7513 153.878 46.5585 155.063 47.1767C156.248 47.8122 157.725 48.6365 158.344 49.0315C158.962 49.4265 160.181 50.2165 161.057 50.7661C165.076 53.325 172.151 58.9752 173.147 60.4178C173.577 61.0361 173.663 61.3452 173.663 62.0665C173.663 62.5474 173.542 63.1828 173.422 63.4576C173.079 64.2133 171.636 66.5833 170.863 67.6652C170.485 68.1804 170.056 68.7987 169.884 69.0391C168.991 70.3959 164.045 76.8704 163.135 77.8837C162.551 78.5535 161.572 79.6698 160.954 80.3739C159.254 82.3317 154.394 87.0717 152.127 88.9609C148.503 92.0178 144.879 94.6626 142.063 96.3457C141.668 96.5861 140.964 97.0154 140.5 97.3074C140.036 97.5993 139.435 97.96 139.16 98.0974C138.903 98.2348 138.25 98.5783 137.735 98.8702C137.22 99.145 136.292 99.6087 135.674 99.8663C135.056 100.141 134.266 100.536 133.922 100.759C133.562 100.983 133.167 101.154 133.029 101.154C132.909 101.154 132.703 101.275 132.583 101.412C132.462 101.549 132.102 101.704 131.741 101.773C131.398 101.841 131.003 101.979 130.865 102.099C130.522 102.374 124.734 104.4 122.708 104.933C118.809 105.963 117.212 106.358 116.353 106.495C115.787 106.581 114.894 106.736 114.378 106.839C111.51 107.388 105.74 108.024 102.442 108.127C99.2996 108.23 95.1264 108.041 93.1685 107.698C92.7048 107.612 91.7259 107.457 91.0218 107.354C89.2872 107.079 86.0585 106.513 84.5816 106.186C83.929 106.049 82.9157 105.843 82.349 105.723C81.0266 105.431 76.2866 104.143 75.0329 103.713C74.5005 103.542 73.9681 103.387 73.8307 103.387C73.5387 103.37 72.3366 102.477 72.0103 102.03C71.5809 101.395 71.4607 100.141 71.7183 98.8702C72.9205 93.0998 76.3209 86.0756 80.2881 81.1467C81.8166 79.2576 84.822 76.1491 86.5566 74.6893C87.2607 74.0883 87.879 73.5559 87.9305 73.5043C87.982 73.4528 88.2053 73.2811 88.4457 73.1265C88.6861 72.9548 89.6479 72.285 90.5924 71.6324C92.6533 70.1898 94.7485 68.9704 97.9772 67.3561C100.897 65.8791 102.511 65.2093 106.908 63.595C107.577 63.3546 108.264 63.097 108.453 63.0111C108.642 62.9252 109.226 62.7535 109.741 62.6161C110.257 62.4787 111.115 62.2383 111.63 62.1009C112.146 61.9635 113.434 61.6372 114.464 61.3967C115.512 61.1391 116.817 60.83 117.384 60.6926C120.578 59.9198 126.331 59.0439 130.35 58.7348C135.09 58.3741 135.846 58.2711 135.846 58.065C135.846 57.9791 135.09 57.8074 134.163 57.6872C131.913 57.3609 118.964 57.3609 115.924 57.67C113.348 57.9276 109.896 58.46 107.766 58.9065C106.925 59.0954 105.946 59.2843 105.62 59.353C104.915 59.4733 102.597 60.0915 102.099 60.2804C101.91 60.3491 101.017 60.6239 100.124 60.8815C99.2309 61.122 97.9772 61.5685 97.3418 61.8433C96.7235 62.118 96.0881 62.3413 95.9335 62.3413C95.7961 62.3413 95.6416 62.41 95.59 62.4959C95.5213 62.5817 94.8516 62.8909 94.0959 63.1828C89.3387 65.0033 81.765 69.9665 76.7503 74.5691C74.9814 76.2007 72.5255 78.9141 70.8768 81.0952C69.3655 83.0874 66.9955 87.4839 65.9479 90.2489C63.5092 96.6548 62.7879 100.57 62.7879 107.423C62.8051 111.442 62.9596 113.245 63.6466 116.937C64.0759 119.187 64.282 119.994 65.2781 122.965C67.0642 128.272 68.9018 131.947 72.3366 137.082C73.0751 138.181 73.6761 139.143 73.6761 139.195C73.6761 139.263 73.8135 139.521 74.0024 139.761C74.5864 140.586 75.3935 142.028 75.2561 142.011C75.1874 142.011 74.8611 141.822 74.5348 141.616Z" fill="#63B747"/>
<path d="M226.695 55.8125H279.723C290.595 55.8125 299.938 57.4401 307.75 60.6953C315.628 63.9505 321.682 68.7682 325.914 75.1484C330.146 81.5286 332.262 89.3737 332.262 98.6836C332.262 106.301 330.96 112.844 328.355 118.312C325.816 123.716 322.203 128.241 317.516 131.887C312.893 135.467 307.457 138.332 301.207 140.48L291.93 145.363H245.836L245.641 122.512H279.918C285.061 122.512 289.326 121.6 292.711 119.777C296.096 117.954 298.635 115.415 300.328 112.16C302.086 108.905 302.965 105.129 302.965 100.832C302.965 96.2747 302.118 92.3359 300.426 89.0156C298.733 85.6953 296.161 83.1562 292.711 81.3984C289.26 79.6406 284.931 78.7617 279.723 78.7617H255.992V198H226.695V55.8125ZM306.188 198L273.766 134.621L304.723 134.426L337.535 196.633V198H306.188Z" fill="white"/>
<path d="M446.105 175.148V198H370.422V175.148H446.105ZM379.992 55.8125V198H350.695V55.8125H379.992ZM436.242 113.723V135.988H370.422V113.723H436.242ZM446.008 55.8125V78.7617H370.422V55.8125H446.008Z" fill="white"/>
<path d="M560.105 175.148V198H484.422V175.148H560.105ZM493.992 55.8125V198H464.695V55.8125H493.992ZM550.242 113.723V135.988H484.422V113.723H550.242ZM560.008 55.8125V78.7617H484.422V55.8125H560.008Z" fill="white"/>
<path d="M694.418 55.8125V198H665.121L607.992 102.688V198H578.695V55.8125H607.992L665.219 151.223V55.8125H694.418Z" fill="white"/>
<path d="M152.978 250.126V255.399H134.276V250.126H152.978ZM136.107 235.453V271H129.394V235.453H136.107ZM157.958 235.453V271H151.244V235.453H157.958ZM179.369 240.849L169.237 271H162.133L175.414 235.453H179.955L179.369 240.849ZM187.841 271L177.66 240.849L177.05 235.453H181.615L194.97 271H187.841ZM187.377 257.792V263.09H168.31V257.792H187.377ZM198.632 235.453H211.547C214.249 235.453 216.568 235.86 218.505 236.674C220.442 237.488 221.931 238.692 222.973 240.287C224.014 241.882 224.535 243.843 224.535 246.171C224.535 248.01 224.21 249.605 223.559 250.956C222.908 252.307 221.988 253.438 220.8 254.35C219.628 255.261 218.244 255.977 216.649 256.498L214.55 257.572H203.148L203.1 252.274H211.62C213.004 252.274 214.151 252.03 215.062 251.542C215.974 251.054 216.658 250.378 217.113 249.516C217.585 248.653 217.821 247.668 217.821 246.562C217.821 245.373 217.593 244.348 217.138 243.485C216.682 242.606 215.99 241.931 215.062 241.459C214.135 240.987 212.963 240.751 211.547 240.751H205.346V271H198.632V235.453ZM218.7 271L210.473 255.082L217.577 255.058L225.902 270.658V271H218.7ZM242.431 264.042L251.293 235.453H258.739L246.19 271H241.234L242.431 264.042ZM234.252 235.453L243.065 264.042L244.335 271H239.33L226.83 235.453H234.252ZM285.961 265.727V271H267.064V265.727H285.961ZM269.115 235.453V271H262.401V235.453H269.115ZM283.495 250.126V255.277H267.064V250.126H283.495ZM285.888 235.453V240.751H267.064V235.453H285.888ZM309.228 261.771C309.228 261.088 309.122 260.478 308.91 259.94C308.715 259.387 308.349 258.891 307.812 258.451C307.291 257.995 306.55 257.556 305.59 257.133C304.646 256.693 303.425 256.238 301.928 255.766C300.268 255.245 298.721 254.659 297.289 254.008C295.857 253.357 294.595 252.6 293.505 251.737C292.431 250.875 291.592 249.882 290.99 248.759C290.388 247.619 290.087 246.301 290.087 244.804C290.087 243.339 290.396 242.004 291.015 240.8C291.649 239.595 292.545 238.562 293.7 237.699C294.856 236.82 296.215 236.145 297.777 235.673C299.356 235.201 301.098 234.965 303.002 234.965C305.639 234.965 307.917 235.445 309.838 236.405C311.775 237.366 313.272 238.668 314.33 240.312C315.388 241.955 315.917 243.803 315.917 245.854H309.228C309.228 244.747 308.992 243.77 308.52 242.924C308.064 242.077 307.364 241.41 306.42 240.922C305.492 240.434 304.32 240.189 302.904 240.189C301.537 240.189 300.398 240.393 299.486 240.8C298.591 241.207 297.916 241.76 297.46 242.46C297.021 243.16 296.801 243.941 296.801 244.804C296.801 245.455 296.955 246.041 297.265 246.562C297.574 247.066 298.038 247.546 298.656 248.002C299.275 248.441 300.04 248.856 300.951 249.247C301.879 249.621 302.953 249.996 304.174 250.37C306.127 250.956 307.836 251.607 309.301 252.323C310.782 253.039 312.011 253.853 312.987 254.765C313.98 255.676 314.721 256.701 315.209 257.841C315.714 258.98 315.966 260.274 315.966 261.723C315.966 263.253 315.665 264.62 315.062 265.824C314.46 267.029 313.598 268.054 312.475 268.9C311.352 269.747 310.001 270.39 308.422 270.829C306.859 271.269 305.11 271.488 303.173 271.488C301.448 271.488 299.739 271.26 298.046 270.805C296.369 270.333 294.848 269.633 293.48 268.705C292.113 267.761 291.023 266.573 290.209 265.141C289.395 263.692 288.988 261.999 288.988 260.062H295.727C295.727 261.186 295.906 262.146 296.264 262.943C296.638 263.725 297.159 264.368 297.826 264.872C298.51 265.36 299.307 265.718 300.219 265.946C301.13 266.174 302.115 266.288 303.173 266.288C304.54 266.288 305.663 266.101 306.542 265.727C307.437 265.336 308.104 264.799 308.544 264.115C309 263.432 309.228 262.65 309.228 261.771ZM336.4 235.453V271H329.711V235.453H336.4ZM347.436 235.453V240.751H318.798V235.453H347.436ZM376.806 258.036H367.65V252.763H376.806C378.303 252.763 379.516 252.519 380.443 252.03C381.387 251.526 382.079 250.842 382.519 249.979C382.958 249.101 383.178 248.1 383.178 246.977C383.178 245.886 382.958 244.869 382.519 243.925C382.079 242.981 381.387 242.216 380.443 241.63C379.516 241.044 378.303 240.751 376.806 240.751H369.848V271H363.134V235.453H376.806C379.573 235.453 381.933 235.95 383.886 236.942C385.855 237.919 387.353 239.278 388.378 241.02C389.42 242.745 389.94 244.714 389.94 246.928C389.94 249.223 389.42 251.2 388.378 252.86C387.353 254.521 385.855 255.798 383.886 256.693C381.933 257.589 379.573 258.036 376.806 258.036ZM417.772 265.727V271H399.901V265.727H417.772ZM401.928 235.453V271H395.214V235.453H401.928ZM436.889 240.849L426.757 271H419.652L432.934 235.453H437.475L436.889 240.849ZM445.36 271L435.18 240.849L434.569 235.453H439.135L452.489 271H445.36ZM444.896 257.792V263.09H425.829V257.792H444.896ZM484.716 235.453V271H477.978L462.865 246.342V271H456.151V235.453H462.865L478.026 260.136V235.453H484.716ZM506.078 235.453V271H499.389V235.453H506.078ZM517.113 235.453V240.751H488.476V235.453H517.113ZM533.227 240.849L523.095 271H515.99L529.271 235.453H533.812L533.227 240.849ZM541.698 271L531.518 240.849L530.907 235.453H535.473L548.827 271H541.698ZM541.234 257.792V263.09H522.167V257.792H541.234ZM564.672 235.453V271H557.982V235.453H564.672ZM575.707 235.453V240.751H547.069V235.453H575.707ZM587.328 235.453V271H580.614V235.453H587.328ZM623.363 252.323V254.154C623.363 256.84 623.005 259.257 622.289 261.405C621.573 263.537 620.556 265.352 619.237 266.85C617.919 268.347 616.348 269.494 614.525 270.292C612.702 271.09 610.676 271.488 608.446 271.488C606.249 271.488 604.231 271.09 602.392 270.292C600.569 269.494 598.99 268.347 597.655 266.85C596.321 265.352 595.287 263.537 594.555 261.405C593.822 259.257 593.456 256.84 593.456 254.154V252.323C593.456 249.621 593.822 247.204 594.555 245.072C595.287 242.94 596.312 241.125 597.631 239.628C598.949 238.114 600.52 236.959 602.343 236.161C604.182 235.364 606.2 234.965 608.397 234.965C610.627 234.965 612.654 235.364 614.477 236.161C616.299 236.959 617.87 238.114 619.188 239.628C620.523 241.125 621.549 242.94 622.265 245.072C622.997 247.204 623.363 249.621 623.363 252.323ZM616.576 254.154V252.274C616.576 250.338 616.397 248.637 616.039 247.172C615.681 245.691 615.152 244.446 614.452 243.437C613.752 242.427 612.89 241.671 611.864 241.166C610.839 240.645 609.683 240.385 608.397 240.385C607.095 240.385 605.94 240.645 604.931 241.166C603.938 241.671 603.091 242.427 602.392 243.437C601.692 244.446 601.155 245.691 600.78 247.172C600.422 248.637 600.243 250.338 600.243 252.274V254.154C600.243 256.075 600.422 257.776 600.78 259.257C601.155 260.738 601.692 261.991 602.392 263.017C603.108 264.026 603.97 264.791 604.979 265.312C605.989 265.832 607.144 266.093 608.446 266.093C609.748 266.093 610.904 265.832 611.913 265.312C612.922 264.791 613.769 264.026 614.452 263.017C615.152 261.991 615.681 260.738 616.039 259.257C616.397 257.776 616.576 256.075 616.576 254.154ZM657.616 235.453V271H650.878L635.766 246.342V271H629.052V235.453H635.766L650.927 260.136V235.453H657.616Z" fill="white"/>
</svg>
